<svg width="12" height="12" viewBox="0 0 12 12" fill="none" xmlns="http://www.w3.org/2000/svg">
<path d="M10.5 7C10.3674 7 10.2402 7.05268 10.1464 7.14645C10.0527 7.24021 10 7.36739 10 7.5V9.5C10 9.63261 9.94732 9.75979 9.85355 9.85355C9.75979 9.94732 9.63261 10 9.5 10H2.5C2.36739 10 2.24021 9.94732 2.14645 9.85355C2.05268 9.75979 2 9.63261 2 9.5V7.5C2 7.36739 1.94732 7.24021 1.85355 7.14645C1.75979 7.05268 1.63261 7 1.5 7C1.36739 7 1.24021 7.05268 1.14645 7.14645C1.05268 7.24021 1 7.36739 1 7.5V9.5C1 9.89782 1.15804 10.2794 1.43934 10.5607C1.72064 10.842 2.10218 11 2.5 11H9.5C9.89782 11 10.2794 10.842 10.5607 10.5607C10.842 10.2794 11 9.89782 11 9.5V7.5C11 7.36739 10.9473 7.24021 10.8536 7.14645C10.7598 7.05268 10.6326 7 10.5 7ZM5.645 7.855C5.69255 7.90052 5.74862 7.9362 5.81 7.96C5.86985 7.98645 5.93456 8.00012 6 8.00012C6.06544 8.00012 6.13015 7.98645 6.19 7.96C6.25138 7.9362 6.30745 7.90052 6.355 7.855L8.355 5.855C8.44915 5.76085 8.50205 5.63315 8.50205 5.5C8.50205 5.36685 8.44915 5.23915 8.355 5.145C8.26085 5.05085 8.13315 4.99795 8 4.99795C7.86685 4.99795 7.73915 5.05085 7.645 5.145L6.5 6.295V1.5C6.5 1.36739 6.44732 1.24021 6.35355 1.14645C6.25979 1.05268 6.13261 1 6 1C5.86739 1 5.74021 1.05268 5.64645 1.14645C5.55268 1.24021 5.5 1.36739 5.5 1.5V6.295L4.355 5.145C4.30838 5.09838 4.25304 5.0614 4.19212 5.03617C4.13121 5.01094 4.06593 4.99795 4 4.99795C3.93407 4.99795 3.86879 5.01094 3.80788 5.03617C3.74696 5.0614 3.69162 5.09838 3.645 5.145C3.59838 5.19162 3.5614 5.24696 3.53617 5.30788C3.51094 5.36879 3.49795 5.43407 3.49795 5.5C3.49795 5.56593 3.51094 5.63121 3.53617 5.69212C3.5614 5.75304 3.59838 5.80838 3.645 5.855L5.645 7.855Z" fill="#F9FAFB"/>
</svg>
