<svg width="32" height="32" viewBox="0 0 32 32" fill="none" xmlns="http://www.w3.org/2000/svg">
<path d="M15.0571 11.0574L9.72378 16.3907C9.4775 16.6415 9.34022 16.9794 9.34181 17.3309C9.3434 17.6823 9.48374 18.019 9.73228 18.2675C9.98082 18.5161 10.3175 18.6564 10.6689 18.658C11.0204 18.6596 11.3583 18.5223 11.6091 18.276L14.6664 15.2188L14.6664 26.6667L17.3331 26.6667L17.3331 15.2188L20.3904 18.2761C20.514 18.4012 20.661 18.5006 20.8231 18.5686C20.9852 18.6367 21.1591 18.672 21.3349 18.6725C21.5107 18.6731 21.6848 18.6388 21.8473 18.5718C22.0098 18.5048 22.1575 18.4063 22.2818 18.282C22.4061 18.1577 22.5046 18.0101 22.5716 17.8475C22.6386 17.685 22.6728 17.5109 22.6722 17.3351C22.6717 17.1593 22.6364 16.9854 22.5683 16.8233C22.5003 16.6612 22.4009 16.5142 22.2758 16.3907L16.9424 11.0574C16.8187 10.9335 16.6717 10.8353 16.51 10.7683C16.3482 10.7013 16.1749 10.6668 15.9998 10.6668C15.8247 10.6668 15.6513 10.7013 15.4896 10.7683C15.3278 10.8353 15.1809 10.9335 15.0571 11.0574Z" fill="#3662E3"/>
<path d="M2.6665 9.33335L2.6665 22.6667C2.66766 23.7272 3.08946 24.7439 3.83936 25.4938C4.58925 26.2437 5.60599 26.6655 6.6665 26.6667L14.6665 26.6667L14.6665 15.2188L11.6092 18.276C11.3584 18.5223 11.0205 18.6596 10.669 18.658C10.3175 18.6564 9.98088 18.5161 9.73234 18.2675C9.48379 18.019 9.34346 17.6823 9.34187 17.3309C9.34028 16.9794 9.47756 16.6415 9.72384 16.3907L15.0572 11.0574C15.1809 10.9335 15.3279 10.8353 15.4897 10.7682C15.6514 10.7012 15.8248 10.6667 15.9999 10.6667C16.175 10.6667 16.3483 10.7012 16.5101 10.7682C16.6718 10.8353 16.8188 10.9335 16.9426 11.0574L22.2759 16.3907C22.5233 16.6412 22.6616 16.9795 22.6605 17.3316C22.6593 17.6838 22.519 18.0212 22.27 18.2701C22.021 18.5191 21.6836 18.6595 21.3314 18.6606C20.9793 18.6617 20.6411 18.5234 20.3905 18.276L17.3332 15.2188L17.3332 26.6667L25.3332 26.6667C26.3937 26.6655 27.4104 26.2437 28.1603 25.4938C28.9102 24.7439 29.332 23.7272 29.3332 22.6667L29.3332 9.33335C29.332 8.27284 28.9102 7.2561 28.1603 6.50621C27.4104 5.75631 26.3937 5.33451 25.3332 5.33335L6.6665 5.33335C5.60599 5.33451 4.58925 5.75631 3.83935 6.50621C3.08946 7.2561 2.66766 8.27284 2.6665 9.33335V9.33335Z" fill="#9DC4F8"/>
</svg>
